<?xml version="1.0" encoding="utf-8" ?>
<svg xmlns="http://www.w3.org/2000/svg" xmlns:xlink="http://www.w3.org/1999/xlink" width="1024" height="1024">
	<path fill="#FEFEFE" d="M0 0L1024 0L1024 1024L0 1024L0 0Z"/>
	<path fill="#010101" d="M927.581 340.522C932.855 340.345 958.589 339.423 961.587 341.003L961.664 341.796C961.356 342.04 961.119 342.425 960.74 342.528C958.439 343.155 933.5 342.575 929.057 342.583C919.759 356.221 911.707 371.267 903.372 385.534Q885.491 385.417 867.611 385.692Q853.949 407.029 840.8 428.685Q825.608 428.855 810.414 428.838C805.483 435.984 800.979 443.499 796.311 450.824C793.711 454.916 787.191 466.652 783.787 469.419C782.933 470.113 782.043 470.134 781.041 469.934C781.54 467.662 785.384 463.76 786.743 461.549C793.915 449.88 801.201 437.791 808.926 426.485C819.007 426.28 829.127 426.432 839.212 426.421C849.557 413.064 855.981 396.487 866.815 383.469L901.843 383.201C904.729 377.906 908.231 372.827 911.334 367.641C916.746 358.597 921.976 349.449 927.581 340.522Z"/>
	<path fill="#8ABAE7" d="M803.638 307.572C806.686 307.292 809.371 307.233 812.297 308.271C815.959 309.571 818.927 312.136 820.524 315.701C822.397 319.881 822.395 325.111 820.571 329.305C818.436 334.216 814.764 336.445 810.01 338.263C807.334 338.604 804.953 338.439 802.373 337.6C798.295 336.275 794.985 333.479 793.109 329.607Q792.766 328.912 792.496 328.186Q792.227 327.459 792.034 326.709Q791.84 325.958 791.726 325.192Q791.611 324.426 791.576 323.651Q791.541 322.877 791.586 322.104Q791.631 321.33 791.756 320.565Q791.881 319.801 792.084 319.053Q792.287 318.305 792.566 317.582C794.613 312.325 798.662 309.645 803.638 307.572Z"/>
	<path fill="#010101" d="M87.1033 142.219C93.4125 141.26 100.289 141.708 106.666 141.717L138.749 141.769L249.069 141.802L626.676 141.822C639.977 141.806 708.27 140.608 714.188 142.782C721.918 144.646 728.186 149.396 732.296 156.166C734.943 160.525 736.336 165.225 736.743 170.289C737.633 181.384 736.786 193.019 736.726 204.193L736.723 264.829L736.922 354.5C736.966 371.607 737.524 388.846 736.784 405.932C746.425 416.836 752.678 429.582 759.695 442.232C767.773 456.794 775.668 471.132 782.695 486.248C781.823 494.358 780.652 502.43 779.74 510.533L792.377 510.589C793.734 498.125 798.643 485.541 801.187 473.201C811.727 473.119 822.962 472.42 833.427 473.479C823.098 474.801 812.33 472.893 802.007 473.812C798.705 485.909 794.577 498.889 793.061 511.317L779.638 511.394C777.645 523.987 776.727 536.829 775.312 549.503C774.824 553.872 773.841 558.165 773.354 562.516C772.818 567.306 773.989 572.11 773.643 576.885C772.856 587.748 764.33 602.958 755.736 609.418C754.393 610.427 753.392 610.832 751.725 610.922C750.387 610.454 749.98 610.113 749.167 608.955C748.704 606.312 748.508 603.692 748.325 601.021C752.217 596.51 756.362 591.858 755.68 585.481C755.64 585.101 755.536 584.736 755.447 584.366L755.721 585.202L754.177 585.605L754.313 585.467C752.824 588.129 750.641 593.322 747.599 594.448C746.488 594.859 745.442 594.451 744.38 594.11C743.478 593.189 743.294 592.67 743.335 591.352C743.645 581.369 746.551 571.355 746.809 561.294C745.647 560.069 744.184 561.112 743.607 559.493C742.791 557.199 743.678 532.021 743.616 527.272L732.792 527.419C734.203 538.826 736.524 550.11 737.884 561.515C739.405 574.277 740.067 587.117 741.29 599.905Q745.346 640.671 748.759 681.496C761.573 677.741 774.109 677.569 786.116 684.096C795.576 689.238 803.344 698.208 806.417 708.59C809.637 719.473 807.738 750.763 808.178 764.098L843.495 764.076C852.751 764.071 863.241 763.022 872.234 765.4Q873.28 765.682 874.306 766.032Q875.331 766.382 876.332 766.799Q877.332 767.215 878.303 767.697Q879.273 768.179 880.21 768.724Q881.147 769.268 882.046 769.874Q882.945 770.479 883.802 771.142Q884.659 771.805 885.47 772.524Q886.282 773.242 887.044 774.012Q888.533 775.512 889.832 777.18Q891.131 778.847 892.223 780.656Q893.315 782.466 894.183 784.393Q895.052 786.32 895.685 788.337C898.916 798.62 900.085 815.287 901.894 826.687L908.008 864.76C908.966 870.749 910.68 877.529 910.657 883.548C909.696 884.512 909.51 884.293 908.126 884.3C899.431 883.114 889.53 883.977 880.726 883.978Q852.401 883.896 824.077 884.211Q767.395 884.417 710.714 883.989C691.88 883.905 673.016 884.316 654.188 883.959L652.246 884.037C636.756 883.478 621.137 883.753 605.634 883.73L529.034 883.601C472.159 883.514 415.135 882.714 358.274 883.717C334.252 884.273 310.137 883.822 286.106 883.751L189.625 883.709L132.793 883.804C121.985 883.85 110.775 884.462 100.014 883.474C100.265 876.371 102.001 869.004 103.157 862Q106.27 842.572 109.61 823.182C111.372 812.809 112.84 797.14 115.89 787.818Q116.509 785.933 117.343 784.132Q118.177 782.332 119.214 780.64Q120.252 778.949 121.479 777.39Q122.706 775.83 124.106 774.424C137.066 761.307 153.944 763.86 170.825 763.869L204.376 763.816L204.339 737.144C204.329 719.787 204.332 705.913 217.245 692.723C225.782 684.002 236.366 679.396 248.587 679.343C260.367 679.292 271.201 683.3 279.565 691.694C293.133 705.309 292.593 718.991 292.536 736.852L292.545 763.866L326.3 763.768C336.056 763.743 348.268 762.35 357.659 765.15C365.708 767.55 371.186 773.472 375.093 780.641C376.884 777.963 378.733 775.392 381.04 773.13C384.881 769.365 389.461 766.874 394.66 765.537C404.023 763.129 414.642 764.054 424.243 764.06L459.546 764.111Q459.718 750.334 459.646 736.557C459.595 719.626 459.172 705.434 471.752 692.4Q472.519 691.601 473.324 690.841Q474.13 690.08 474.971 689.36Q475.813 688.64 476.689 687.962Q477.565 687.284 478.473 686.649Q479.381 686.015 480.319 685.426Q481.257 684.837 482.222 684.294Q483.188 683.752 484.179 683.257Q485.17 682.762 486.185 682.317Q487.199 681.872 488.233 681.476Q489.268 681.081 490.321 680.737Q491.374 680.393 492.442 680.101Q493.511 679.809 494.592 679.569Q495.674 679.33 496.766 679.144Q497.857 678.957 498.957 678.825Q500.057 678.692 501.162 678.614Q502.267 678.535 503.374 678.511C514.885 678.365 527.069 682.879 535.287 691.023C549.013 704.628 548.479 720.239 548.371 738.169Q548.352 751.083 548.539 763.995L590.427 764.031C590.628 758.762 591.63 753.351 592.306 748.115Q594.222 733.652 595.933 719.163L611.147 597.575C585.956 597.125 560.701 597.473 535.505 597.521C534.44 615.764 535.063 634.347 535.031 652.63C521.38 652.902 507.657 652.584 494 652.569L410.855 652.549L344.571 652.624C332.705 652.647 320.776 653.006 308.919 652.612C308.2 645.55 308.51 638.198 308.512 631.1L308.435 597.571C291.103 597.195 273.703 597.459 256.364 597.427L151.047 597.411L109.016 597.454C101.84 597.462 94.1314 598.073 87.0342 597.21C81.8365 596.579 77.0572 594.493 72.8732 591.381C66.9991 587.011 62.2998 579.484 61.2596 572.158C60.304 565.427 60.6215 558.361 60.6154 551.569L60.599 520.152L60.6468 411.968L60.5734 251.199L60.4647 199.315C60.4342 190.004 59.9615 180.457 60.5489 171.18C60.9257 165.229 62.311 159.882 65.9495 155.028C71.0759 148.19 78.6075 143.404 87.1033 142.219Z"/>
	<path fill="#F47A3E" d="M652.672 344.871C653.816 348.681 649.844 357.926 651.22 364.228C652.247 368.934 655.647 372.724 659.719 375.136C660.866 375.816 662.719 376.53 663.659 377.423C664.667 378.382 664.543 378.836 664.566 380.126C664.061 381.175 663.799 381.666 662.795 382.279L660.354 381.686C656.691 380.256 653.299 378.46 650.535 375.609C646.476 371.422 644.704 365.85 645.023 360.073C645.374 353.715 648.118 349.102 652.672 344.871Z"/>
	<path fill="#FEFEFE" d="M718.169 452.729C718.3 452.858 718.444 452.977 718.563 453.117C721.423 456.465 740.896 508.566 743.161 516.513C743.932 519.217 743.566 522.785 743.552 525.598L732.734 525.525C729.88 513.796 728.381 501.62 726.161 489.753C723.835 477.321 720.783 465.093 718.169 452.729Z"/>
	<path fill="#FEFEFE" d="M497.398 403.432C504.246 405.01 522.694 416.114 528.241 414.494C528.616 411.303 520.614 407.105 519.187 404.057L519.883 403.765C527.354 405.563 538.833 415.86 543.254 422.155C544.518 424.083 545.633 426.121 546.79 428.114C542.731 431.922 538.702 435.7 534.964 439.832C521.995 430.706 505.329 417.509 497.398 403.432Z"/>
	<path fill="#FEFEFE" d="M750.666 560.242C757.252 560.076 763.852 560.194 770.439 560.231C770.768 566.637 771.371 573.233 770.831 579.636C770.131 587.936 761.042 602.016 754.561 607.003C753.566 607.769 753.06 608.074 751.782 607.89C750.736 606.34 751.265 603.25 751.37 601.391C753.771 598.266 756.889 594.777 757.877 590.907C758.628 587.965 758.103 580.491 756.292 577.994C755.806 577.324 755.574 577.482 754.836 577.392C751.518 579.728 751.708 585.138 750.07 588.634C749.32 590.235 748.47 591.266 746.802 591.87L746.054 591.077C745.635 588.396 748.557 563.155 749.666 560.578L750.666 560.242Z"/>
	<path fill="#FEFEFE" d="M673.169 612.86C674.009 617.214 674.091 621.948 674.51 626.388L677.181 653.512L682.874 707.926C684.655 726.626 686.068 745.341 688.175 764.013L664.074 764.027C659.258 764.088 655.503 764.557 650.986 766.27C653.172 755.097 654.265 743.601 655.932 732.33Q661.862 693.096 667.157 653.772C669.011 640.481 669.993 625.822 673.169 612.86Z"/>
	<path fill="#F47A3E" d="M675.751 312.664C679.108 312.197 682.995 312.35 686.362 312.714C696.511 313.811 711.232 318.825 711.575 331.092C711.693 335.316 709.791 340.243 712.039 344.136C714.971 349.215 722.355 350.469 726.003 355.32C728.851 359.107 729.212 364.341 728.34 368.861C727.083 375.371 722.781 381.024 717.234 384.54C709.908 389.184 700.537 390.51 692.135 388.725C690.061 387.802 688.296 386.749 686.442 385.439C683.711 380.515 683.207 373.977 682.264 368.471C684.834 366.211 687.517 364.02 689.391 361.118C691.043 358.559 692.09 355.511 691.305 352.463C690.823 350.591 689.596 348.913 687.878 348.002C679.696 343.667 678.917 354.12 673.262 355.853L672.683 355.37C672.27 350.118 673.248 344.323 673.58 339.04C670.449 337.575 667.239 336.161 664.281 334.363C660.943 332.334 657.152 329.323 656.352 325.259C655.976 323.35 656.4 321.496 657.564 319.937C661.319 314.906 669.934 313.546 675.751 312.664Z"/>
	<path fill="#FEFEFE" d="M702.507 398.528L703.249 398.694C704.288 402.746 703.546 421.982 703.572 427.227L703.776 522.473L666.992 522.43C661.203 522.433 654.795 523.074 649.106 522.303L648.563 521.466C648.63 510.777 649.3 500.048 649.623 489.359C650.53 459.384 651.696 429.325 652.102 399.344C668.721 407.042 685.809 404.124 702.507 398.528Z"/>
	<path fill="#FEFEFE" d="M311.184 597.517L532.822 597.557C532.46 615.081 532.631 632.651 532.545 650.181L311.148 650.159C310.934 632.697 310.466 614.96 311.184 597.517Z"/>
	<path fill="#8ABAE7" d="M648.565 524.968C666.982 524.653 685.514 524.864 703.933 525.143L704.03 561.495L735.296 561.439L742.879 645.071C743.82 655.507 744.362 672.993 746.602 682.485C741.945 684.425 737.899 686.748 734.201 690.217C720.72 702.86 721.442 718.75 721.471 735.76Q721.616 750.028 721.317 764.293C711.23 763.509 700.84 763.831 690.712 763.705C688.388 744.76 687.075 725.772 685.288 706.778L678.139 637.795Q676.769 624.207 675.673 610.594C675.352 606.816 675.433 602.396 674.632 598.726C674.471 597.988 674.111 597.444 673.718 596.816C672.583 597.703 672.232 598.101 671.957 599.539C671.346 602.727 671.199 606.124 670.756 609.352L667.477 632.429L654.112 726.821C652.115 740.476 650.678 754.345 648.003 767.882C641.813 771.79 638.285 776.773 635.018 783.195C633.161 779.881 630.921 776.909 628.181 774.277C618.081 764.576 606.488 763.718 593.249 764.021C593.762 756.836 594.955 749.599 595.837 742.447L600.023 707.068Q608.817 634.293 618.73 561.662L646.5 561.647C647.525 549.446 647.481 537.169 648.565 524.968Z"/>
	<path fill="#FEFEFE" d="M243.317 682.168C243.792 682.099 244.269 682.041 244.749 682.005C256.027 681.154 267.399 684.062 275.983 691.66C290.245 704.283 290.121 717.858 290.104 735.436C290.095 745.738 289.798 756.12 290.352 766.408C304.751 766.793 319.315 766.292 333.728 766.264C340.214 766.251 347.288 765.718 353.69 766.746C359.783 767.725 366.092 771.576 369.688 776.598C370.991 778.418 372.432 781.008 372.477 783.308C372.628 791.051 369.458 803.22 368.076 811.282Q362.204 846.51 355.635 881.614L233.25 881.676L102.885 881.534C103.314 873.552 105.079 865.591 106.344 857.711Q109.292 838.391 112.647 819.137C114.384 809.121 115.202 797.949 118.355 788.29C119.835 783.754 122.419 779.739 125.747 776.342Q126.506 775.557 127.316 774.825Q128.125 774.093 128.983 773.417Q129.84 772.74 130.741 772.124Q131.642 771.507 132.582 770.952Q133.522 770.397 134.498 769.907Q135.473 769.417 136.48 768.993Q137.486 768.57 138.518 768.215Q139.551 767.86 140.605 767.576C149.723 765.14 160.635 766.264 170.066 766.271Q188.294 766.345 206.521 766.206C207.736 744.882 202.019 716.174 215.416 698.527C222.38 689.354 231.926 683.701 243.317 682.168Z"/>
	<path fill="#8ABAE7" d="M723.307 766.979C723.347 766.771 723.39 766.562 723.427 766.353C727.921 740.793 714.655 707.117 739.68 689.07C748.886 682.431 760.76 679.969 771.905 681.901Q772.909 682.066 773.904 682.281Q774.898 682.495 775.881 682.76Q776.864 683.024 777.832 683.338Q778.8 683.651 779.751 684.012Q780.702 684.374 781.634 684.782Q782.566 685.191 783.477 685.645Q784.387 686.1 785.273 686.6Q786.16 687.1 787.02 687.643Q787.88 688.187 788.712 688.772Q789.544 689.358 790.346 689.985Q791.147 690.612 791.917 691.278Q792.686 691.944 793.421 692.648Q794.155 693.352 794.854 694.092Q795.553 694.831 796.214 695.605Q796.875 696.379 797.496 697.185Q798.117 697.991 798.697 698.827Q799.737 700.332 800.622 701.933Q801.507 703.534 802.229 705.215Q802.95 706.897 803.5 708.641Q804.05 710.386 804.424 712.177C805.987 719.782 805.367 728.131 805.369 735.862Q805.454 751.187 805.331 766.511C818.594 766.972 831.908 766.738 845.179 766.754C853.86 766.765 864.031 765.795 872.409 768.188C877.596 769.669 882.318 772.942 885.98 776.86C888.867 779.95 891.4 783.739 892.755 787.764C895.666 796.415 896.209 806.728 897.528 815.758L904.143 858.547C905.436 867.073 906.273 875.901 908.126 884.3C899.431 883.114 889.53 883.977 880.726 883.978Q852.401 883.896 824.077 884.211Q767.395 884.417 710.714 883.989C691.88 883.905 673.016 884.316 654.188 883.959C652.594 866.491 648.508 848.871 645.326 831.616C642.584 816.745 640.689 801.387 636.363 786.884C639.432 779.424 643.036 772.586 650.85 769.142C653.762 767.859 656.992 767.195 660.147 766.873C668.152 766.057 676.564 766.566 684.609 766.613Q703.959 766.663 723.307 766.979Z"/>
	<path fill="#F47A3E" d="M461.969 766.417C462.36 756.366 462.26 746.291 462.29 736.234C462.341 718.982 461.434 705.197 475.209 692.414Q475.967 691.702 476.76 691.029Q477.552 690.355 478.376 689.721Q479.201 689.087 480.055 688.494Q480.91 687.901 481.793 687.352Q482.676 686.802 483.584 686.296Q484.493 685.79 485.425 685.329Q486.358 684.869 487.312 684.454Q488.266 684.04 489.239 683.674Q490.212 683.307 491.202 682.988Q492.192 682.67 493.197 682.4Q494.201 682.131 495.218 681.911Q496.234 681.691 497.261 681.522Q498.287 681.352 499.32 681.233Q500.353 681.114 501.391 681.046Q502.429 680.978 503.469 680.962Q504.509 680.945 505.548 680.979C516.528 681.429 527.314 685.969 534.747 694.156C545.871 706.409 545.973 718.732 545.957 734.393C545.945 744.98 545.447 755.82 546.157 766.378C559.056 766.662 571.984 766.438 584.886 766.409C593.391 766.389 603.22 765.409 611.485 767.636C617.426 769.236 623.206 772.73 627.436 777.189C630.754 780.686 632.921 784.683 634.416 789.251C638.352 801.277 640.175 817.614 642.458 830.263C645.684 848.14 649.65 866.071 652.246 884.037C636.756 883.478 621.137 883.753 605.634 883.73L529.034 883.601C472.159 883.514 415.135 882.714 358.274 883.717C358.763 876.956 360.252 870.234 361.468 863.572L366.804 833.968L371.713 805.226C372.801 798.852 373.573 792.194 375.637 786.05C377.214 781.358 379.742 777.484 383.485 774.248C387.402 770.863 392.147 768.656 397.187 767.556C404.899 765.874 413.315 766.501 421.171 766.498C434.747 766.493 448.404 766.829 461.969 766.417Z"/>
	<path fill="#FEFEFE" d="M89.5871 143.784C103.555 144.637 117.967 143.865 131.992 143.868L216.38 143.857L477.133 143.765L641.185 143.688L687.884 143.751C694.478 143.789 702.283 144.71 708.727 143.822C717.153 145.312 724.057 148.377 729.18 155.619Q729.72 156.385 730.21 157.184Q730.7 157.984 731.136 158.813Q731.573 159.642 731.956 160.498Q732.338 161.354 732.665 162.232Q732.991 163.111 733.26 164.009Q733.529 164.907 733.739 165.82Q733.95 166.734 734.1 167.659Q734.251 168.584 734.342 169.517C735.29 178.361 734.615 187.861 734.599 196.773L734.519 250.074L734.579 343.141Q734.782 373.519 734.512 403.897C725.628 397.209 716.58 394.161 705.421 394.347C696.345 401.05 675.963 402.378 665.138 400.784C660.643 400.122 654.89 399.049 651.313 396.132L650.68 394.823C651.59 392.982 656.623 391.182 658.588 390.553C660.703 389.876 665.053 389.4 666.164 387.348C667.849 384.235 667.146 378.214 667.449 374.664C663.263 374.13 659.62 373.038 656.846 369.603C653.519 365.483 653.244 359.862 653.92 354.825C654.877 347.689 656.732 340.653 657.967 333.557C662.036 336.119 666.207 338.369 670.625 340.276C670.497 344.47 668.546 354.368 670.352 357.647C671.546 358.392 671.898 358.642 673.375 358.482C675.182 358.286 677.512 356.832 679.151 356.024L679.406 355.351C680.346 352.926 680.877 351.528 683.367 350.454C684.083 350.145 684.767 350.084 685.535 350.041C686.804 350.62 687.418 350.969 688.01 352.29C688.786 354.021 688.966 356.27 688.143 358.014C687.372 359.646 685.854 361.015 684.575 362.253C680.131 366.556 679.472 368.281 680.43 374.435C680.796 376.786 681.136 379.193 681.799 381.479C682.916 385.336 685.213 388.255 688.769 390.175C695.132 393.612 703.627 392.803 710.295 390.584C718.131 387.977 725.039 382.646 728.73 375.151C731.312 369.905 732.387 363.957 730.434 358.319C726.746 347.673 719.012 349.391 714.596 343.065C710.167 336.721 721.004 323.109 701.327 313.933C690.575 308.919 675.577 308.532 664.483 312.633C660.65 314.049 656.364 316.326 654.479 320.148C653.226 322.688 653.291 325.59 654.325 328.187C654.865 329.544 655.64 330.824 656.371 332.086C655.544 335.092 654.66 338.093 653.906 341.117C649.001 343.543 645.645 347.966 643.88 353.095C641.697 359.439 642.03 366.615 645.176 372.58C649.38 380.554 656.999 383.299 665.053 385.738C658.372 387.738 652.183 390.842 645.691 393.337C638.986 395.915 630.71 397.258 624.926 401.697C616.742 407.977 593.509 450.036 586.324 461.576Q575.755 449.583 564.875 437.872C561.435 434.162 557.917 429.789 554.088 426.529C553.138 425.719 552.281 425.39 551.048 425.156L549.245 426.208C546.704 423.363 544.802 419.927 542.468 416.903C538.251 411.439 532.238 407.615 526.535 403.877C524.875 402.79 522.499 400.738 520.496 400.674C519.302 400.637 518.023 401.253 517.269 402.164C516.625 402.942 516.556 403.65 516.434 404.606C516.815 405.846 517.254 406.908 517.827 408.063L517.624 408.589C511.411 406.984 501.297 399.367 495.071 401.33C494.636 401.931 494.339 402.053 494.435 402.859C495.183 409.131 512.861 425.851 517.562 429.844C521.99 433.604 526.77 436.919 531.506 440.274C531.85 441.853 532.199 443.43 533.011 444.844C537.514 452.69 544.075 460.18 549.528 467.444C557.165 477.618 564.464 488.441 572.985 497.883C573.819 498.754 574.628 499.572 575.337 500.551L575.735 500.861C581.377 505.183 588.179 507.626 595.349 506.533C613.841 503.714 619.046 483.571 628.837 470.792C628.946 470.65 629.058 470.511 629.168 470.37C626.816 492.839 622.99 515.155 619.673 537.496C616.826 556.675 614.518 575.992 611.384 595.117L259.908 595L146.301 595.014L109.85 595.074C102.863 595.088 95.759 595.364 88.7852 594.942C84.4155 594.679 80.4511 593.47 76.7158 591.157C70.4425 587.271 65.4416 580.732 63.9291 573.452C61.898 563.676 63.0662 536.843 63.0678 525.525L63.081 420.557L63.0395 253.263L62.9298 199.352C62.9079 190.028 62.4497 180.474 62.983 171.173C63.2975 165.688 64.3002 161.367 67.5586 156.773C73.0058 149.092 80.5034 145.456 89.5871 143.784Z"/>
	<path fill="#8ABAE7" d="M387.117 544.241C396.706 544.244 486.268 543.37 488.528 544.987L488.419 546.503C476.195 546.489 390.154 547.448 386.329 545.941L386.148 545.062L387.117 544.241Z"/>
	<path fill="#8ABAE7" d="M572.985 497.883C573.819 498.754 574.628 499.572 575.337 500.551L446.248 500.474C427.912 500.449 409.399 501.011 391.091 500.5C389.492 500.455 387.981 500.457 386.495 499.777L386.529 499.08C387.983 498.173 389.832 498.316 391.533 498.249C407.601 497.624 423.911 498.203 440.006 498.176L533.43 498.08L558.972 498.174C563.375 498.189 568.255 498.612 572.581 497.952C572.716 497.931 572.85 497.906 572.985 497.883Z"/>
	<path fill="#8ABAE7" d="M393.811 521.244C416.293 521.18 576.278 519.802 581.686 522.437L581.319 523.031C579.536 523.92 578.193 523.874 576.256 523.803L575.497 523.769L444.633 523.586L404.301 523.554C399.361 523.554 394.237 524.058 389.338 523.824C387.988 523.759 386.976 523.657 385.768 522.982L385.818 522.283C387.773 520.689 391.424 521.202 393.811 521.244Z"/>
	<path fill="#8ABAE7" d="M522.014 214.948C522.192 214.942 522.369 214.934 522.547 214.93C540.696 214.492 559.53 224.366 572.292 236.681C589.347 253.139 596.257 272.109 596.677 295.491L521.751 295.631C522.481 268.775 521.367 241.838 522.014 214.948Z"/>
	<path fill="#010101" d="M506.02 231.719C508.177 231.722 510.344 231.886 512.499 231.993L512.879 302.659L559.891 302.85C567.376 302.877 576.821 301.85 584.061 303.594C584.422 304.363 584.503 304.321 584.57 305C584.868 308.014 584.205 311.549 583.753 314.534C581.316 330.63 574.567 345.728 563.514 357.748Q562.882 358.448 562.232 359.132Q561.583 359.816 560.917 360.483Q560.25 361.15 559.567 361.801Q558.885 362.451 558.186 363.085Q557.487 363.718 556.772 364.333Q556.057 364.949 555.328 365.546Q554.598 366.143 553.853 366.722Q553.109 367.301 552.35 367.861Q551.591 368.421 550.819 368.962Q550.046 369.503 549.26 370.024Q548.474 370.546 547.675 371.047Q546.877 371.549 546.066 372.03Q545.255 372.511 544.432 372.972Q543.609 373.433 542.775 373.873Q541.94 374.313 541.096 374.732Q540.251 375.151 539.396 375.548Q538.54 375.946 537.675 376.322Q536.811 376.698 535.937 377.053Q535.063 377.407 534.18 377.739Q533.297 378.072 532.407 378.382Q531.516 378.692 530.618 378.98Q529.72 379.267 528.815 379.532Q527.91 379.797 526.998 380.04Q526.087 380.282 525.17 380.502Q524.252 380.721 523.33 380.917Q522.407 381.114 521.48 381.287Q520.553 381.46 519.622 381.61Q518.691 381.76 517.756 381.886Q516.822 382.013 515.884 382.116Q514.947 382.219 514.007 382.298Q513.067 382.378 512.126 382.434Q511.185 382.49 510.242 382.522C490.799 382.721 473.157 377.741 458.076 365.1C442.316 351.889 432.96 333.475 431.262 313.021Q431.101 311.187 431.031 309.347Q430.961 307.507 430.983 305.666Q431.005 303.825 431.118 301.987Q431.231 300.15 431.436 298.32Q431.64 296.49 431.935 294.673Q432.23 292.855 432.615 291.055Q433 289.255 433.474 287.475Q433.948 285.696 434.51 283.943Q435.072 282.19 435.72 280.466Q436.368 278.743 437.101 277.054Q437.834 275.365 438.651 273.715Q439.467 272.064 440.364 270.456Q441.261 268.849 442.237 267.287Q443.212 265.726 444.265 264.215Q445.317 262.704 446.443 261.248Q447.569 259.791 448.766 258.392C464.08 240.598 483.225 233.407 506.02 231.719Z"/>
	<path fill="#FEFEFE" d="M506.88 234.234C507.844 234.238 508.809 234.296 509.773 234.337C509.929 234.534 510.154 234.693 510.241 234.929C510.588 235.865 510.479 300.305 510.504 305.308C534.365 304.671 558.67 304.709 582.53 305.388C580.117 323.834 575.836 339.586 563.432 353.967C549.435 370.193 532.354 378.464 511.206 380.038C490.854 380.713 471.588 374.372 456.5 360.423Q455.194 359.209 453.949 357.933Q452.704 356.656 451.524 355.32Q450.344 353.984 449.23 352.591Q448.117 351.198 447.074 349.752Q446.031 348.307 445.06 346.811Q444.089 345.316 443.193 343.774Q442.297 342.233 441.478 340.649Q440.659 339.065 439.919 337.443Q439.179 335.821 438.52 334.165Q437.861 332.508 437.284 330.821Q436.707 329.134 436.213 327.421Q435.72 325.707 435.312 323.972Q434.904 322.236 434.582 320.483Q434.259 318.729 434.024 316.962Q433.788 315.194 433.64 313.418Q433.492 311.641 433.431 309.859C432.694 290.613 439.261 272.06 452.44 257.927C467.143 242.16 485.654 234.907 506.88 234.234Z"/>
	<path fill="#8ABAE7" d="M115.986 160.695C128.614 160.407 141.3 160.679 153.935 160.689L231.992 160.9L434.456 161.311L601.298 161.323L656.302 161.315C666.008 161.298 675.9 160.854 685.587 161.344C690.199 161.578 694.485 162.794 698.276 165.503Q698.711 165.811 699.13 166.14Q699.549 166.47 699.951 166.82Q700.353 167.171 700.736 167.542Q701.119 167.912 701.483 168.302Q701.846 168.692 702.19 169.1Q702.533 169.508 702.855 169.932Q703.177 170.357 703.477 170.798Q703.777 171.239 704.054 171.694Q704.331 172.15 704.584 172.619Q704.838 173.088 705.067 173.569Q705.296 174.051 705.5 174.543Q705.704 175.036 705.882 175.538Q706.061 176.04 706.214 176.551Q706.367 177.062 706.493 177.58Q706.62 178.098 706.719 178.621Q706.819 179.145 706.892 179.673C707.671 185.471 705.821 191.281 702.286 195.882C698.342 201.016 693.427 203.821 687.056 204.683C676.684 205.151 666.174 204.822 655.787 204.806L600.666 204.723L436.25 204.796L230.897 204.998Q188.993 205.136 147.09 204.744C137.588 204.64 127.99 204.893 118.502 204.536C114.312 204.378 110.642 203.823 107.04 201.531Q106.543 201.214 106.063 200.872Q105.583 200.53 105.12 200.165Q104.657 199.801 104.213 199.413Q103.768 199.026 103.344 198.617Q102.919 198.208 102.515 197.779Q102.111 197.349 101.729 196.9Q101.347 196.452 100.988 195.984Q100.628 195.517 100.293 195.033Q99.9568 194.548 99.6453 194.048Q99.3338 193.547 99.0474 193.032Q98.7611 192.517 98.5005 191.988Q98.24 191.46 98.006 190.919Q97.7719 190.378 97.565 189.826Q97.358 189.274 97.1785 188.712Q96.9991 188.151 96.8476 187.581Q96.6962 187.011 96.5731 186.435C95.3022 180.309 96.9245 174.906 100.458 169.891C104.181 164.609 109.7 161.676 115.986 160.695Z"/>
	<path fill="#FEFEFE" d="M209.536 176.055Q210.151 176.047 210.765 176.061C212.772 176.115 214.78 176.595 216.086 178.265C217.095 179.554 217.494 181.006 217.229 182.617C216.804 185.199 215.256 186.738 213.27 188.272C211.967 188.478 210.818 188.593 209.512 188.291C208.186 187.984 206.911 186.868 206.215 185.733C205.23 184.126 205.155 182.123 205.643 180.339C206.266 178.062 207.637 177.208 209.536 176.055Z"/>
	<path fill="#FEFEFE" d="M130.906 175.488C131.829 175.493 132.713 175.548 133.614 175.753C135.433 176.167 137.148 177.33 138.006 179.031C138.726 180.459 138.931 181.933 138.485 183.472C137.777 185.911 136.15 186.985 133.996 188.09C133.206 188.056 132.407 188.04 131.624 187.923C129.981 187.677 128.501 186.552 127.566 185.205Q127.388 184.95 127.238 184.677Q127.087 184.405 126.966 184.119Q126.844 183.832 126.753 183.535Q126.662 183.237 126.602 182.932Q126.542 182.626 126.515 182.317Q126.487 182.007 126.491 181.696Q126.496 181.384 126.533 181.075Q126.569 180.766 126.638 180.463C127.192 177.892 128.758 176.777 130.906 175.488Z"/>
	<path fill="#FEFEFE" d="M170.961 176.043C173.496 176.021 175.868 176.093 177.717 178.08C178.83 179.277 179.443 180.873 179.296 182.51C179.043 185.312 177.443 187.058 175.326 188.714C174.223 188.876 173.346 188.993 172.227 188.844C170.67 188.638 169.072 187.522 168.169 186.267C167.056 184.72 166.728 182.784 167.1 180.931C167.603 178.428 168.875 177.353 170.961 176.043Z"/>
	<path fill="#010101" d="M148.097 272.683C161.823 272.344 175.619 272.631 189.351 272.645L264.837 272.68L300.843 272.487C307.553 272.427 314.877 271.819 321.52 272.713C327.025 273.454 332.426 275.317 336.558 279.157C340.929 283.219 344.193 288.902 345.334 294.762C346.586 301.194 346.099 308.156 346.081 314.689L346.071 341.373L346.036 415.989C346.028 430.852 345.78 445.752 346.213 460.608L316.125 460.577C249.744 459.749 183.324 461.028 116.934 460.38C116.163 449.258 116.657 437.834 116.653 426.682L116.608 367.328L116.581 324.996C116.579 316.696 116.006 307.911 117.218 299.705C118.124 293.578 120.336 288.432 124.317 283.662C130.641 276.086 138.589 273.516 148.097 272.683Z"/>
	<path fill="#FEFEFE" d="M118.931 458.037L119.004 349.532L118.927 319.677C118.904 312.481 118.32 304.484 119.754 297.425C120.743 292.562 124.513 286.74 127.994 283.229C131.693 279.499 136.861 276.434 142.073 275.477C149.179 274.173 157.252 274.806 164.49 274.818L200.581 274.891C239.205 274.93 277.889 274.269 316.505 274.69C324.131 274.773 330.936 276.527 336.383 282.248C340.386 286.45 342.216 291.129 343.075 296.796C343.976 302.745 343.566 309.172 343.569 315.189L343.574 347.102L343.52 458.206C331.532 458.203 319.506 458.398 307.522 458.17C307.507 427.615 307.931 396.996 307.441 366.448C298.013 365.636 288.324 366.105 278.864 366.242L279.127 458.096L250.582 458.125L219.067 458.074L191.473 458.095Q178.158 458.023 164.846 458.272C149.587 458.458 134.174 458.733 118.931 458.037Z"/>
	<path fill="#010101" d="M311.2 308.289C311.921 308.677 311.911 308.814 312.324 309.478C311.281 312.777 285.815 349.055 282.431 352.899C277.513 348.639 266.232 342.841 260.132 339.119C251.134 352.655 242.972 367.131 233.346 380.189C225.784 376.975 218.402 372.672 211.087 368.896C201.975 381.19 194.441 394.676 185.25 406.911L162.069 392.769C152.63 403.585 146.034 416.8 136.616 427.593C136.315 427.353 136.014 426.875 135.773 426.568C136.748 421.918 156.8 395.422 161.013 389.838C169.098 394.295 176.847 399.326 184.78 404.048C193.17 391.477 201.075 377.805 210.8 366.242Q221.622 372.081 232.796 377.215C241.55 363.57 249.935 349.207 259.492 336.118C266.784 341.003 274.53 345.407 282.143 349.779C292.34 336.339 300.762 321.553 311.2 308.289Z"/>
	<path fill="#F47A3E" d="M164.931 427.996L191.084 428.012Q190.941 443.058 191.473 458.095Q178.158 458.023 164.846 458.272L164.931 427.996Z"/>
	<path fill="#8ABAE7" d="M219.311 408.981C229.611 409.005 239.941 408.858 250.237 409.099C250.404 425.388 249.912 441.866 250.582 458.125L219.067 458.074Q219.39 433.528 219.311 408.981Z"/>
</svg>
