<?xml version="1.0" encoding="utf-8" ?>
<svg xmlns="http://www.w3.org/2000/svg" xmlns:xlink="http://www.w3.org/1999/xlink" width="1024" height="1024">
	<path fill="#FEFEFE" d="M0 0L1024 0L1024 1024L0 1024L0 0Z"/>
	<path fill="#EF9F53" d="M789.746 714.584L868.159 714.419C880.567 714.428 896.262 713.276 908.277 715.177C911.478 715.684 914.493 716.95 916.836 719.244Q917.414 719.815 917.934 720.441Q918.454 721.066 918.91 721.739Q919.366 722.412 919.755 723.126Q920.143 723.841 920.46 724.59Q920.777 725.338 921.019 726.115Q921.261 726.891 921.426 727.687Q921.591 728.483 921.678 729.292Q921.765 730.1 921.772 730.913C921.783 735.152 920.094 739.544 916.953 742.443C914.61 744.605 911.855 745.577 908.741 746.018C898.175 747.513 881.24 746.489 870.111 746.485L790.016 746.547L789.823 745.278C800.584 744.69 811.505 745.031 822.281 745.03L877.532 745.064C885.684 745.081 901.404 746.014 908.752 744.888C911.505 744.466 914.067 743.346 916.132 741.463C918.965 738.881 920.407 735.222 920.478 731.42C920.558 727.095 918.786 722.578 915.628 719.589C913.183 717.273 910.527 716.601 907.268 716.186C896.245 714.783 879.914 715.782 868.257 715.792L789.899 716.017L789.746 714.584Z"/>
	<path fill="#FEFEFE" d="M789.899 716.017L868.257 715.792C879.914 715.782 896.245 714.783 907.268 716.186C910.527 716.601 913.183 717.273 915.628 719.589C918.786 722.578 920.558 727.095 920.478 731.42C920.407 735.222 918.965 738.881 916.132 741.463C914.067 743.346 911.505 744.466 908.752 744.888C901.404 746.014 885.684 745.081 877.532 745.064L822.281 745.03C811.505 745.031 800.584 744.69 789.823 745.278C790.025 735.532 789.734 725.769 789.899 716.017Z"/>
	<path d="M172.182 136.172C184.057 135.844 196.043 136.195 207.929 136.192L280.791 136.16L525.772 136.062C533.006 136.031 538.944 137.239 544.196 142.669C546.859 145.422 548.923 148.755 549.713 152.533C551.452 160.863 550.419 174.078 550.43 182.813L550.428 243.847Q560.929 243.993 571.429 243.774C576.418 243.683 581.782 243.203 586.736 243.85C588.767 244.116 591.068 244.665 592.646 246.053C594.905 248.041 595.795 250.238 595.966 253.187C596.373 260.215 595.929 267.478 595.968 274.539C596.011 282.253 597.029 291.419 595.743 298.987C595.474 300.571 594.588 302.061 593.494 303.218C592.629 304.132 591.712 304.675 590.478 304.924C585.219 305.985 579.212 305.388 573.846 305.375L550.566 305.503L550.595 348.29C550.609 356.079 551.113 364.228 550.331 371.96C550.055 374.692 549.468 377.505 548.455 380.061C545.448 387.653 539.801 391.621 532.607 394.724C523.34 396.885 512.933 395.928 503.435 395.923L462.52 395.912Q365.755 395.392 268.991 395.904C264.78 399.114 261.098 403.113 257.223 406.716C249.425 413.967 241.562 421.125 233.834 428.454C229.375 432.683 224.791 437.622 219.651 440.998C218.371 426.238 219.091 410.785 219.032 395.955C209.256 395.757 199.461 395.926 189.684 395.955C183.803 395.972 177.527 396.448 171.753 395.209Q170.471 394.934 169.227 394.522Q167.982 394.109 166.79 393.564Q165.598 393.019 164.472 392.347Q163.346 391.676 162.3 390.886C157.281 387.117 154.228 381.95 153.402 375.729C152.054 365.575 152.939 352.915 152.897 342.47L152.649 276.578L152.524 196.374C152.506 182.508 151.581 168.044 152.834 154.282C153.2 150.262 154.146 147.208 156.737 143.993C160.692 139.085 166.09 136.879 172.182 136.172Z"/>
	<path fill="#FEFEFE" d="M478.984 244.571Q518.081 244.293 557.175 244.807C566.274 244.851 579.626 243.368 588.085 244.704C591.374 245.223 593.163 247.468 594.964 250.074C595.719 258.44 595.224 267.235 595.231 275.638C595.237 282.818 595.81 290.572 595.053 297.7C594.889 299.248 594.63 300.586 593.772 301.909C592.295 304.186 589.611 304.776 587.125 305.172C567.855 305.201 548.617 304.608 529.347 304.658C513.009 304.701 496.343 305.491 480.042 304.734C477.854 304.633 475.224 304.531 473.268 303.455C471.506 302.485 469.868 300.295 469.498 298.318C468.549 293.238 469.255 286.604 469.224 281.344C469.168 271.71 468.492 261.828 469.209 252.227C469.3 251.012 469.502 250.031 470.206 249.013C472.331 245.946 475.485 245.089 478.984 244.571Z"/>
	<path fill="#FEFEFE" d="M526.713 138.249C532.863 138.235 537.951 139.485 542.48 143.989C544.92 146.416 546.836 149.596 547.482 153.001C549.186 161.982 548.107 173.659 548.102 182.899L548.025 243.608L497.242 243.92C491.122 243.947 481.372 242.991 475.746 244.392C471.866 245.358 470.157 247.999 468.191 251.169Q468.139 252.543 468.102 253.918C467.859 263.044 467.179 290.122 468.569 297.78C468.922 299.728 469.669 301.244 471.093 302.646Q471.637 303.181 472.259 303.622Q472.882 304.063 473.567 304.399Q474.252 304.735 474.981 304.957Q475.711 305.179 476.467 305.282C483.968 306.378 492.81 305.429 500.426 305.393L548.236 305.422Q548.268 305.999 548.291 306.576C548.7 319.273 548.41 332.081 548.452 344.79C548.482 354.156 549.506 364.937 547.688 374.117C546.828 378.46 545.116 382.606 542.019 385.83C538.347 389.653 533.697 392.448 528.43 393.304C520.349 394.618 511.155 393.838 502.954 393.826L457.07 393.748L332.757 393.669C311.043 393.67 289.199 393.142 267.503 393.779C258.595 402.339 249.489 410.711 240.474 419.16C234.104 424.948 228.091 431.117 221.499 436.661C221.067 422.412 221.237 408.087 221.108 393.829C210.503 393.842 179.706 395.095 170.905 392.776C167.215 391.804 164.192 389.909 161.47 387.266C156.481 382.423 155.209 377.057 155.005 370.359C154.571 356.09 155.038 341.686 155.016 327.402L154.872 233.751L154.8 181.051C154.79 172.385 154.082 162.984 155.038 154.387C155.487 150.351 157.169 146.789 160.053 143.909Q160.625 143.348 161.242 142.839Q161.86 142.329 162.519 141.874Q163.178 141.418 163.873 141.021Q164.568 140.624 165.295 140.287Q166.022 139.951 166.775 139.678Q167.527 139.404 168.301 139.197Q169.074 138.989 169.862 138.847Q170.651 138.706 171.448 138.633C183.021 137.498 195.832 138.467 207.563 138.444L283.473 138.329L526.713 138.249Z"/>
	<path fill="#908D9E" d="M255.749 362.373Q238.506 362.63 221.261 362.645C214.295 362.692 206.611 363.405 199.781 362.191C207.845 360.911 220.868 361.677 229.433 361.634C236.846 361.597 244.985 360.815 252.289 361.747C253.436 361.965 254.59 362.227 255.749 362.373Z"/>
	<path fill="#F9E6AD" d="M428.385 174.74C435.366 174.502 472.781 173.244 476.812 175.489C478.001 177.133 478.498 178.862 478.8 180.863C479.618 186.276 480.007 210.121 477.263 213.89C473.036 216.098 466.313 215.069 461.625 214.959Q444.095 214.86 426.568 215.189C424.461 216.583 422.536 218.43 420.601 220.058C418.148 218.124 416.24 216.194 414.617 213.505Q417.642 210.819 420.576 208.034C421.16 201.187 418.879 180.531 422.51 175.947C424.341 174.812 426.293 174.878 428.385 174.74Z"/>
	<path fill="#41568B" d="M308.163 269.411C305.833 251.452 311.283 228.614 322.42 214.179C329.265 205.307 339.326 198.08 350.676 196.756C359.455 195.732 367.562 198.973 374.326 204.386C390.285 217.157 400.047 240.192 402.148 260.131Q402.704 265.281 402.256 270.441C390.511 270.554 378.469 269.815 366.718 269.269C367.205 273.629 367.649 279.824 371.175 282.863L371.342 285.152C372.214 286.122 372.862 287.262 373.286 288.496C374.012 290.611 374.483 292.951 373.385 295.035C372.111 297.454 369.789 298.912 367.225 299.671C360.602 301.632 348.537 301.102 342.491 297.644C339.44 295.899 337.201 293.143 336.404 289.692C335.895 287.485 335.419 284.592 336.685 282.581L336.269 282.37C337.373 279.803 339.676 273.277 338.879 270.627C338.782 270.303 338.611 270.005 338.478 269.694C333.02 267.555 314.699 268.922 308.163 269.411Z"/>
	<path fill="#FEFEFE" d="M340.519 261.271C335.568 252.657 331.825 242.783 334.452 232.763C336.878 223.513 344.359 214.447 352.638 209.768C355.706 208.034 359.225 206.692 362.778 207.616C366.866 208.68 369.756 212.243 371.649 215.819C377.886 227.602 378.615 242.18 374.641 254.746C372.427 261.744 368.434 261.363 365.268 266.011C363.818 268.139 367.39 279.176 368.566 281.52C369.267 282.919 370.275 284.026 371.342 285.152C372.214 286.122 372.862 287.262 373.286 288.496C374.012 290.611 374.483 292.951 373.385 295.035C372.111 297.454 369.789 298.912 367.225 299.671C360.602 301.632 348.537 301.102 342.491 297.644C339.44 295.899 337.201 293.143 336.404 289.692C335.895 287.485 335.419 284.592 336.685 282.581C341.088 276.936 340.319 268.083 340.519 261.271Z"/>
	<path fill="#EF9F53" d="M252.289 361.747C257.959 348.393 264.624 335.639 271.42 322.834C276.99 312.339 282.397 300.738 290.459 291.91C293.272 288.83 296.781 285.719 300.671 284.135C308.49 280.953 327.012 282.745 336.269 282.37L336.685 282.581C335.419 284.592 335.895 287.485 336.404 289.692C337.201 293.143 339.44 295.899 342.491 297.644C348.537 301.102 360.602 301.632 367.225 299.671C369.789 298.912 372.111 297.454 373.385 295.035C374.483 292.951 374.012 290.611 373.286 288.496C372.862 287.262 372.214 286.122 371.342 285.152L371.175 282.863C383.738 282.525 400.56 281.174 410.282 290.473C418.402 298.239 423.023 310.526 428.043 320.461L442.543 348.658C444.743 352.917 446.735 357.413 449.139 361.551L492.037 361.528C500.451 361.516 509.072 361.209 517.462 361.78C507.547 362.763 497.258 362.243 487.291 362.267Q466.572 362.52 445.853 362.344Q430.524 362.434 415.195 362.343C395.329 363.195 375.08 362.437 355.18 362.371Q305.464 362.074 255.749 362.373C254.59 362.227 253.436 361.965 252.289 361.747Z"/>
	<path fill="#FEFEFE" d="M266.196 356.365C268.196 356.35 269.231 356.39 270.723 357.729C271.095 359.239 270.815 359.838 270.279 361.231C268.517 361.398 267.133 361.625 265.671 360.547C265.323 358.997 265.762 357.837 266.196 356.365Z"/>
	<path fill="#FEFEFE" d="M354.117 308.818C354.644 308.905 355.671 308.993 356.178 309.257C357.23 309.804 357.874 310.494 358.038 311.697C358.233 313.125 357.309 314.58 356.649 315.779C355.835 315.725 354.772 315.693 354.025 315.314C352.829 314.708 352.702 313.951 352.332 312.791C352.544 311.002 353.01 310.223 354.117 308.818Z"/>
	<path fill="#FEFEFE" d="M375.426 353.903C376.472 354.059 377.53 354.285 378.446 354.846C379.381 355.419 380.038 356.621 380.067 357.701C380.11 359.298 379.083 360.356 378.086 361.436C376.881 361.343 375.381 361.313 374.382 360.532C373.39 359.757 372.903 358.848 373.013 357.579C373.144 356.061 374.419 354.916 375.426 353.903Z"/>
	<path fill="#FEFEFE" d="M426.445 359.972C425.254 358.544 424.138 357.091 424.242 355.107C424.304 353.928 424.899 352.962 425.887 352.33Q426.092 352.198 426.31 352.09Q426.528 351.981 426.757 351.896Q426.986 351.812 427.222 351.752Q427.458 351.693 427.7 351.659Q427.941 351.625 428.185 351.617Q428.428 351.609 428.671 351.628Q428.914 351.646 429.154 351.691Q429.394 351.735 429.627 351.805C430.75 352.151 431.605 352.959 431.942 354.096C432.526 356.059 431.627 357.924 430.741 359.623C429.277 359.666 427.895 359.769 426.445 359.972Z"/>
	<path fill="#FEFEFE" d="M314.459 294.373C315.735 294.591 317.429 295.096 318.328 296.079C319.258 297.095 319.703 298.056 319.563 299.459C319.341 301.686 318.028 302.757 316.439 304.113C315.088 304.064 313.793 303.87 312.755 302.918C311.715 301.965 311.322 300.79 311.423 299.413C311.597 297.056 312.75 295.865 314.459 294.373Z"/>
	<path fill="#FEFEFE" d="M286.143 326.311C287.676 326.678 289.044 327.291 289.937 328.647C290.709 329.818 290.788 330.909 290.533 332.255C290.12 334.433 288.605 335.475 286.823 336.542C285.184 336.2 283.659 335.751 282.632 334.288C281.848 333.171 281.807 332.068 282.119 330.784C282.642 328.628 284.415 327.465 286.143 326.311Z"/>
	<path fill="#FEFEFE" d="M335.174 327.993C337.007 327.817 338.751 327.621 340.245 328.972C341.159 329.8 341.504 330.964 341.424 332.171C341.281 334.346 340.047 335.717 338.605 337.212C336.898 337.399 335.461 337.375 334.049 336.188C332.986 335.294 332.635 334.266 332.629 332.921C332.619 330.673 333.698 329.499 335.174 327.993Z"/>
	<path fill="#FEFEFE" d="M395.887 321.054C397.728 321.33 399.5 321.691 400.605 323.379C401.415 324.617 401.597 325.507 401.31 326.961C400.892 329.078 399.184 330.155 397.467 331.177Q396.135 331.006 394.905 330.469C393.457 329.835 392.375 328.515 391.897 327.02C391.51 325.806 391.698 324.523 392.347 323.431C393.181 322.027 394.426 321.566 395.887 321.054Z"/>
	<path d="M567.107 462.616C568.155 443.639 572.784 421.838 586.408 407.653C595.883 397.788 605.603 394.731 618.605 392.325C623.051 391.502 627.572 390.39 632.116 390.368C644.021 390.313 655.109 397.049 663.25 405.278C677.051 419.228 682.416 437.879 682.381 457.051Q684.241 457.769 686.062 458.582C691.576 461.095 695.951 466.515 697.954 472.152C700.854 480.311 700.71 492.207 697.007 500.015C693.889 506.589 689.183 510.091 682.486 512.359C682.21 532.906 682.364 553.485 682.288 574.035Q686.773 573.951 691.258 573.939C705.359 573.945 718.437 578.098 728.549 588.306C741.044 600.92 742.553 613.033 742.57 629.952L742.569 651.769C755.684 652.876 766.749 658.085 775.905 667.642C789.313 681.639 790.228 696.26 789.746 714.584L789.899 716.017C789.734 725.769 790.025 735.532 789.823 745.278L790.016 746.547C789.575 776.702 789.775 806.905 789.789 837.064L789.827 863.281C789.845 868.481 790.139 873.806 789.655 878.984L788.961 879.549L788.185 879.342C786.464 873.123 787.588 853.932 787.588 846.69L787.536 752.494L787.479 721.177C787.46 710.147 788.583 698.474 785.192 687.833C781.415 675.979 772.741 666.068 761.961 659.98Q760.037 658.885 758.012 657.989Q755.987 657.094 753.882 656.407Q751.777 655.72 749.613 655.248Q747.45 654.777 745.25 654.526C738.428 653.76 731.401 654.058 724.545 654.054L692.966 654.056L653.715 654.03C646.038 654.015 638.26 653.737 630.602 654.192C626.898 654.412 623.227 654.921 619.651 655.927C607.098 659.458 595.863 668.433 589.544 679.865C586.471 685.424 584.772 691.588 584.034 697.874C582.429 711.535 583.525 726.157 583.547 739.93L583.637 840.004L583.541 865.627C583.551 868.86 583.866 872.134 583.751 875.356C583.702 876.716 583.701 878.145 582.954 879.323C582.391 879.48 581.809 879.683 581.232 879.774C580.56 876.425 580.896 872.605 580.911 869.179C566.166 869.378 551.244 869.993 536.514 869.528C534.663 869.47 534.09 869.321 532.811 867.961C512.676 868.584 492.424 870.604 472.311 871.885C456.7 872.879 440.143 872.736 424.76 875.577Q422.583 875.981 420.445 876.555Q418.306 877.13 416.219 877.87Q414.133 878.611 412.111 879.513Q410.089 880.415 408.144 881.474C403.717 883.908 398.771 887.357 395.413 891.134C392.377 894.551 389.567 899.958 385.733 902.42L385.064 902.111C385.352 898.948 389.083 894.977 391.106 892.612C398.11 884.42 406.337 878.708 416.598 875.335C431.84 870.325 450.941 870.962 467.069 869.926Q499.698 867.882 532.296 865.403C532.503 837.85 532.844 810.122 532.213 782.58C526.188 797.264 519.843 811.429 506.075 820.431C495.432 827.39 482.231 830.23 469.742 827.555C460.291 825.531 451.363 820.329 444.682 813.381C437.081 805.475 431.918 795.086 426.481 785.647C413.392 762.922 401.972 739.009 387.555 717.084C374.093 716.841 360.581 717.083 347.113 717.102Q323.016 716.967 298.924 717.44C299.131 712.643 299.607 707.466 303.112 703.807C306.403 700.372 310.544 700.11 314.99 700.114L315.116 576.349L315.149 540.605C315.111 533.678 314.693 526.597 315.101 519.689C315.251 517.146 315.369 513.322 317.017 511.308C318.325 509.71 320.228 508.562 322.276 508.237C328.49 507.251 335.497 507.866 341.809 507.886L379.264 508.007L497.751 507.729L544.508 507.968C552.736 508.001 561.312 508.535 569.504 507.851L569.62 506.818C568.364 504.231 565.166 502.399 563.118 500.369C558.43 495.723 556.556 489.982 556.619 483.461C556.706 474.465 560.857 468.531 567.107 462.616Z"/>
	<path fill="#FEFEFE" d="M457.994 717.132L473.432 717.173C472.102 721.495 470.743 725.717 469.012 729.901L466.912 734.542C463.552 728.946 461.1 722.871 457.994 717.132Z"/>
	<path fill="#FEFEFE" d="M572.339 506.825Q575.349 507.218 578.371 507.51Q579.366 509.968 580.516 512.357Q581.667 514.747 582.968 517.057Q584.27 519.368 585.717 521.59Q587.164 523.812 588.751 525.937Q590.338 528.061 592.058 530.08Q593.778 532.098 595.624 534.002Q597.469 535.906 599.434 537.687Q601.398 539.468 603.473 541.12L603.419 556.758C600.713 555.696 598.278 554.347 595.946 552.618C580.822 541.398 574.959 524.694 572.339 506.825Z"/>
	<path fill="#FEFEFE" d="M682.372 459.044C684.229 459.946 686.03 460.97 687.682 462.215Q688.149 462.568 688.599 462.943Q689.049 463.318 689.481 463.714Q689.912 464.11 690.324 464.527Q690.736 464.943 691.128 465.379Q691.519 465.815 691.89 466.269Q692.26 466.723 692.608 467.194Q692.956 467.665 693.281 468.153Q693.605 468.64 693.907 469.142Q694.208 469.645 694.485 470.161Q694.761 470.677 695.013 471.206Q695.265 471.735 695.491 472.276Q695.716 472.816 695.916 473.367Q696.116 473.917 696.289 474.477Q696.462 475.037 696.609 475.604Q696.755 476.171 696.873 476.745Q696.992 477.318 697.083 477.897C698.605 487.597 697.435 496.11 691.605 504.139C688.758 506.862 685.941 508.428 682.364 509.945C682.046 493.162 681.431 475.796 682.372 459.044Z"/>
	<path fill="#FEFEFE" d="M609.945 396.132L610.084 396.52L609.428 397.015C590.16 411.631 584.42 437.542 581.257 460.299C577.795 460.074 574.512 460.397 571.105 460.973L570.116 460.675C568.001 452.147 575.938 428.212 580.115 420.418C586.484 408.532 597.062 400.092 609.945 396.132Z"/>
	<path fill="#FEFEFE" d="M577.399 462.689C580.926 462.751 584.07 463.406 587.167 465.135C591.926 467.793 595.168 472.456 596.509 477.692C598.042 483.68 597.255 490.211 594.064 495.537C590.709 501.138 586.003 503.547 579.899 505.07C575.493 505.119 571.738 504.316 568.037 501.812C563.257 498.577 560.163 493.341 559.304 487.668C558.367 481.474 559.667 474.527 563.576 469.528C567.234 464.85 571.734 463.298 577.399 462.689Z"/>
	<path fill="#FEFEFE" d="M309.116 702.513C348.524 703.317 388.039 702.541 427.46 702.49L459.087 702.477C465.634 702.483 472.335 702.197 478.845 702.896C478.049 706.24 476.859 711.519 474.42 714.025C473.797 714.665 472.968 714.469 472.125 714.525L356.356 714.62L320.162 714.635C314.759 714.638 308.996 715.114 303.641 714.677C302.565 714.589 302.277 714.718 301.557 713.856C301.39 713.125 301.238 712.451 301.406 711.7C302.264 707.864 306.027 704.589 309.116 702.513Z"/>
	<path fill="#FEFEFE" d="M629.999 392.678C638.603 392.179 646.498 395.175 653.453 400.076C668.39 410.604 676.373 426.144 679.421 443.843C677.221 438.242 674.545 433.337 670.324 428.983C662.749 421.171 652.95 416.87 642.058 416.705C632.254 416.556 622.871 419.945 615.866 426.884C602.683 439.944 603.491 456.124 603.734 473.264Q603.993 486.607 603.83 499.952C603.339 512.632 603.578 525.422 603.502 538.116C593.915 530.004 585.311 519.287 581.109 507.382Q582.845 506.837 584.561 506.233C590.441 504.141 595.055 499.701 597.641 494.042Q597.901 493.475 598.133 492.895Q598.364 492.315 598.566 491.724Q598.767 491.134 598.939 490.534Q599.111 489.933 599.252 489.325Q599.393 488.717 599.503 488.103Q599.614 487.488 599.693 486.869Q599.772 486.25 599.819 485.628Q599.867 485.005 599.883 484.381Q599.9 483.757 599.884 483.133Q599.869 482.509 599.823 481.887Q599.776 481.264 599.698 480.645Q599.619 480.026 599.51 479.411Q599.401 478.797 599.261 478.188Q599.12 477.58 598.95 476.98Q598.779 476.379 598.578 475.788Q598.377 475.197 598.147 474.617C595.311 467.607 590.273 463.57 583.547 460.651C586.205 443.035 589.815 423.069 601.017 408.69C608.273 399.376 618.384 394.066 629.999 392.678Z"/>
	<path fill="#FEFEFE" d="M441.411 510.252L570.228 510.394C571.655 517.21 573.238 523.803 575.481 530.4C564.268 529.706 552.904 530.066 541.668 530.063L485.598 530.092L328.544 530.092C327.776 547.911 328.544 566.067 328.573 583.92L328.674 688.518C343.214 689.012 357.889 688.618 372.444 688.627L444.057 688.574C457.437 688.589 470.867 688.37 484.241 688.777L480.158 700.214C425.902 699.552 371.613 700.574 317.35 700.339C316.811 660.468 317.452 620.506 317.482 580.627L317.442 539.158C317.427 531.784 316.947 524.07 317.609 516.738C317.776 514.882 318.204 513.51 319.522 512.16C320.75 510.904 321.776 510.772 323.473 510.592C335.105 509.357 350.391 510.306 362.487 510.317L441.411 510.252Z"/>
	<path d="M449.438 515.469C450.986 515.43 452.705 515.33 454.073 516.174C454.974 516.729 455.762 517.704 455.849 518.78C456.021 520.899 454.959 522.095 453.608 523.535C452.133 523.807 450.764 523.841 449.409 523.074C448.298 522.446 447.652 521.531 447.471 520.264C447.174 518.17 448.191 516.954 449.438 515.469Z"/>
	<path fill="#FEFEFE" d="M330.655 532.623C360.39 531.789 390.345 532.555 420.103 532.537L576.67 532.602C583.477 544.26 590.668 553.788 603.209 559.435L603.257 574.032C591.951 573.889 580.05 573.059 568.845 574.554C549.426 577.144 532.176 589.117 520.406 604.371C510.885 616.245 506.28 631.338 501.021 645.39C495.934 658.986 491.084 672.721 485.518 686.129C466.64 686.7 447.688 686.349 428.8 686.36L330.99 686.366L330.655 532.623Z"/>
	<path fill="#F9E6AD" d="M455.183 717.054C458.139 722.425 463.533 736.121 467.241 739.676C468.306 739.146 468.574 738.693 468.948 737.547C476.93 713.088 487.046 689.373 496.205 665.328L506.122 638.989C509.31 630.453 512.126 621.888 516.86 614.042C523.896 602.38 533.487 591.956 545.441 585.259C567.575 572.857 580.349 577.442 603.417 575.976L603.574 583.131Q642.839 583.509 682.105 583.217L682.121 576.512C699.713 576.175 713.13 576.854 726.534 589.805C736.732 599.658 740.131 610.879 740.267 624.742C740.355 633.711 740.213 642.692 740.154 651.662L666.422 651.564C653.435 651.55 632.716 650.211 620.673 653.032C611.44 655.195 603.394 660.047 596.693 666.685C591.13 672.196 586.444 678.859 584.013 686.358C579.505 700.266 581.173 739.512 581.199 756.161L581.413 838.481C581.415 852.229 581.718 866.038 581.232 879.774C580.56 876.425 580.896 872.605 580.911 869.179C566.166 869.378 551.244 869.993 536.514 869.528C534.663 869.47 534.09 869.321 532.811 867.961C533.489 867.654 534.131 867.638 534.355 866.867C535.293 863.63 535.269 780.058 533.929 774.862L533.454 774.705L533.358 775.349L532.816 775.652L532.596 776.04L532.322 775.558L532.394 776.395C529.131 782.959 526.726 789.903 523.499 796.465C517.285 809.1 506.761 819.485 493.253 823.981Q492.224 824.32 491.18 824.609Q490.136 824.898 489.079 825.135Q488.022 825.372 486.955 825.558Q485.888 825.743 484.813 825.876Q483.738 826.009 482.657 826.089Q481.577 826.169 480.494 826.196Q479.411 826.223 478.328 826.197Q477.245 826.171 476.165 826.092Q475.085 826.013 474.01 825.882Q472.934 825.75 471.867 825.566Q470.799 825.382 469.742 825.146Q468.685 824.91 467.641 824.622Q466.596 824.335 465.567 823.997Q464.538 823.658 463.527 823.27Q462.516 822.882 461.525 822.444Q460.533 822.007 459.565 821.522Q457.254 820.35 455.079 818.942Q452.904 817.535 450.888 815.908Q448.872 814.281 447.037 812.451Q445.202 810.622 443.569 808.611C438.405 802.321 434.571 794.731 430.498 787.705C419.787 769.225 410.267 750.061 399.39 731.689C396.481 726.776 393.714 721.603 390.466 716.92L455.183 717.054Z"/>
</svg>
