<svg width="1080" height="1080" viewBox="0 0 1080 1080" fill="none" xmlns="http://www.w3.org/2000/svg">
<path d="M608.602 663.2V680.4L221.002 741.4L208.802 766.2L95.0018 661.4L75.8018 261.4C75.8018 261.4 82.2018 217.8 84.2018 204C86.2018 190.2 106.002 186.8 106.002 186.8L187.002 183.6L264.202 190.6L341.402 181.6C344.602 172.6 350.402 172.4 350.402 172.4L431.402 166.8L595.202 178L236.002 201.6C236.002 201.6 218.002 195.2 221.202 237.2C224.402 279.2 252.402 714.6 252.402 714.6C252.402 714.6 245.402 723.8 279.202 719.6C312.802 715.2 608.602 663.2 608.602 663.2Z" fill="#2E2B27" stroke="#2E2B27" stroke-width="7.7146" stroke-miterlimit="10" stroke-linecap="round" stroke-linejoin="round"/>
<path d="M608.602 663.2V680.2" stroke="#2E2B27" stroke-width="7.7146" stroke-miterlimit="10" stroke-linecap="round" stroke-linejoin="round"/>
<path d="M281.403 504.6V530.4C281.403 530.4 280.603 539.8 294.203 538.2C308.003 536.4 588.203 495.4 588.203 495.4C588.203 495.4 595.003 499.6 595.003 486C595.003 472.4 584.803 232.2 584.803 232.2L267.603 259.4V283.4" stroke="#2E2B27" stroke-width="7.7146" stroke-miterlimit="10" stroke-linecap="round" stroke-linejoin="round"/>
<path d="M568.199 469L594.199 492.6" stroke="#2E2B27" stroke-width="7.7146" stroke-miterlimit="10" stroke-linecap="round" stroke-linejoin="round"/>
<path d="M563.402 261.2L584.802 232" stroke="#2E2B27" stroke-width="7.7146" stroke-miterlimit="10" stroke-linecap="round" stroke-linejoin="round"/>
<path d="M448.602 591.2L581.202 569.8" stroke="#2E2B27" stroke-width="7.7146" stroke-miterlimit="10" stroke-linecap="round" stroke-linejoin="round"/>
<path d="M543.602 558.6V591.2L584.802 584.4V552.6L543.602 558.6Z" stroke="#35FF69" stroke-width="7.7146" stroke-miterlimit="10" stroke-linecap="round" stroke-linejoin="round"/>
<path d="M236.001 232L267.601 700L628.601 636.6L608.801 203.8L236.001 232Z" stroke="#2E2B27" stroke-width="7.7146" stroke-miterlimit="10" stroke-linecap="round" stroke-linejoin="round"/>
<path d="M608.802 203.8C608.802 203.8 609.202 185.2 603.402 180.4C597.602 175.6 572.602 178.8 572.602 178.8L236.002 201.6C236.002 201.6 220.802 201 220.802 218.6C220.802 236.2 252.202 714.6 252.202 714.6C252.202 714.6 253.002 724.4 267.602 722.8C282.202 721.2 615.602 662 615.602 662C615.602 662 629.602 661.6 628.402 636.8" stroke="#2E2B27" stroke-width="7.7146" stroke-miterlimit="10" stroke-linecap="round" stroke-linejoin="round"/>
<path d="M232.801 232L221.001 215" stroke="#2E2B27" stroke-width="7.7146" stroke-miterlimit="10" stroke-linecap="round" stroke-linejoin="round"/>
<path d="M96.4033 198.6L226.003 213.4" stroke="white" stroke-width="7.7146" stroke-miterlimit="10" stroke-linecap="round" stroke-linejoin="round"/>
<path d="M215.402 748.6C215.402 748.6 209.002 756 210.202 774.4C211.402 792.8 264.202 850 281.002 878.4C297.802 906.6 313.802 912.4 323.402 913.2C333.002 913.8 846.802 813.6 846.802 813.6C846.802 813.6 854.202 807.4 857.802 793.6C861.402 779.8 861.402 779.8 861.402 779.8" stroke="#2E2B27" stroke-width="7.7146" stroke-miterlimit="10" stroke-linecap="round" stroke-linejoin="round"/>
<path d="M842.001 804.6L350.401 896.2C350.401 896.2 323.201 906.2 308.801 888.6C294.401 871 233.001 784 233.001 784" stroke="#2E2B27" stroke-width="7.7146" stroke-miterlimit="10" stroke-linecap="round" stroke-linejoin="round"/>
<path d="M632 644.6C632 644.6 683.4 625.4 744.6 653.6C805.8 681.8 814.6 683.8 832.6 687C850.6 690.2 864.8 700 864.8 700" stroke="#2E2B27" stroke-width="7.7146" stroke-miterlimit="10" stroke-linecap="round" stroke-linejoin="round"/>
<path d="M921.201 694L846 705C846 705 837.601 710.8 836.401 723C835.201 735.2 836.401 744.8 836.401 744.8C836.401 744.8 911 794.4 913 795C915 795.6 924 797.6 956 791.2C988.2 784.8 995.201 784.2 1000.4 777.6C1000.4 777.6 1006.8 773.8 1004.2 753.8C1004.2 753.8 1008 750 976.001 727.4C943.801 705 937.601 691.6 921.201 694Z" fill="#2E2B27" stroke="#2E2B27" stroke-width="7.7146" stroke-miterlimit="10" stroke-linecap="round" stroke-linejoin="round"/>
<path d="M844.801 715.2C844.801 715.2 855.201 709.4 863.801 715.2C872.401 721 915.401 760.2 922.801 764C930.201 767.8 999.601 754.4 999.601 754.4" stroke="white" stroke-width="7.7146" stroke-miterlimit="10" stroke-linecap="round" stroke-linejoin="round"/>
<path d="M267.604 283.4L281.403 504.6C281.403 504.6 282.204 520.8 304.604 518.4C326.804 515.8 466.604 508.2 557.404 481.6C557.404 481.6 570.204 476.4 572.004 453.4C573.804 430.2 572.004 294 563.404 261.4C563.404 261.4 563.404 246 540.204 245.2C517.004 244.4 315.603 261.4 280.403 269.2C280.603 268.8 267.204 275 267.604 283.4Z" stroke="#35FF69" stroke-width="10.2862" stroke-miterlimit="10" stroke-linecap="round" stroke-linejoin="round"/>
<path d="M233.772 761.975C227.978 754.839 232.029 744.107 241.092 742.578L711.104 663.32C712.361 663.108 713.569 662.688 714.786 662.307C719.237 660.915 731.511 659.074 745.802 674C762.963 691.733 850.296 767.458 858.399 774.478C858.843 774.862 859.255 775.15 859.698 775.535C861.689 777.267 866.064 782.86 846.202 787.2C824.07 792.035 401.574 874.523 342.451 886.063C338.098 886.913 333.855 885.249 331.06 881.806L233.772 761.975Z" stroke="#35FF69" stroke-width="10.2862" stroke-miterlimit="10" stroke-linecap="round" stroke-linejoin="round"/>
<path d="M707.601 664L718.201 675.2V683.4H727.601L738.201 693.8V700L754.201 708.6V715.4L774.201 723L779.401 744.8L765.601 748.6L768.801 764.8L386.401 841.2L369.001 822.6L336.201 828.4L279.001 756.4L288.801 734.6" stroke="#2E2B27" stroke-width="7.7146" stroke-miterlimit="10" stroke-linecap="round" stroke-linejoin="round"/>
<path d="M289.802 740L299.402 750.6L316.602 748.6" stroke="#2E2B27" stroke-width="7.7146" stroke-miterlimit="10" stroke-linecap="round" stroke-linejoin="round"/>
<path d="M320.398 730.8L330.198 744.8L346.998 742.4" stroke="#2E2B27" stroke-width="7.7146" stroke-miterlimit="10" stroke-linecap="round" stroke-linejoin="round"/>
<path d="M352.199 725.8L362.799 738.8L376.799 737.4" stroke="#2E2B27" stroke-width="7.7146" stroke-miterlimit="10" stroke-linecap="round" stroke-linejoin="round"/>
<path d="M383.801 721.4L394.601 734.8L407.401 732.8" stroke="#2E2B27" stroke-width="7.7146" stroke-miterlimit="10" stroke-linecap="round" stroke-linejoin="round"/>
<path d="M412.398 713.8L424.798 729L441.398 725.8" stroke="#2E2B27" stroke-width="7.7146" stroke-miterlimit="10" stroke-linecap="round" stroke-linejoin="round"/>
<path d="M444 708.6L454.8 723L472.4 720" stroke="#2E2B27" stroke-width="7.7146" stroke-miterlimit="10" stroke-linecap="round" stroke-linejoin="round"/>
<path d="M474 703.4L486 717.6L503.4 713.8" stroke="#2E2B27" stroke-width="7.7146" stroke-miterlimit="10" stroke-linecap="round" stroke-linejoin="round"/>
<path d="M505 698.2L515.6 712.8L533 710.6" stroke="#2E2B27" stroke-width="7.7146" stroke-miterlimit="10" stroke-linecap="round" stroke-linejoin="round"/>
<path d="M533 693.6L545 707.6L562.8 703.4" stroke="#2E2B27" stroke-width="7.7146" stroke-miterlimit="10" stroke-linecap="round" stroke-linejoin="round"/>
<path d="M562.801 688.4L574.801 701.4L591.401 698.2" stroke="#2E2B27" stroke-width="7.7146" stroke-miterlimit="10" stroke-linecap="round" stroke-linejoin="round"/>
<path d="M592.398 683.4L603.198 696.2L620.798 693.6" stroke="#2E2B27" stroke-width="7.7146" stroke-miterlimit="10" stroke-linecap="round" stroke-linejoin="round"/>
<path d="M621.199 678.6L631.999 692L649.199 689.8" stroke="#2E2B27" stroke-width="7.7146" stroke-miterlimit="10" stroke-linecap="round" stroke-linejoin="round"/>
<path d="M648.398 674L658.798 686.4L675.798 683.4" stroke="#2E2B27" stroke-width="7.7146" stroke-miterlimit="10" stroke-linecap="round" stroke-linejoin="round"/>
<path d="M677.801 669.8L687.801 681.4L716.401 675.6" stroke="#2E2B27" stroke-width="7.7146" stroke-miterlimit="10" stroke-linecap="round" stroke-linejoin="round"/>
<path d="M303.199 759.2L312.199 769.8L346.999 764.6" stroke="#2E2B27" stroke-width="7.7146" stroke-miterlimit="10" stroke-linecap="round" stroke-linejoin="round"/>
<path d="M352.199 750.6L360.599 761.2L380.999 759.2" stroke="#2E2B27" stroke-width="7.7146" stroke-miterlimit="10" stroke-linecap="round" stroke-linejoin="round"/>
<path d="M386 747.4L393.4 756L412.4 752.6" stroke="#2E2B27" stroke-width="7.7146" stroke-miterlimit="10" stroke-linecap="round" stroke-linejoin="round"/>
<path d="M416.602 741.4L424.802 750.6L441.402 747" stroke="#2E2B27" stroke-width="7.7146" stroke-miterlimit="10" stroke-linecap="round" stroke-linejoin="round"/>
<path d="M446.602 734.8L456.202 744.6L474.002 742" stroke="#2E2B27" stroke-width="7.7146" stroke-miterlimit="10" stroke-linecap="round" stroke-linejoin="round"/>
<path d="M475.801 729L486.601 739.8L503.401 736.4" stroke="#2E2B27" stroke-width="7.7146" stroke-miterlimit="10" stroke-linecap="round" stroke-linejoin="round"/>
<path d="M506.602 723L516.802 734.4L535.602 730.8" stroke="#2E2B27" stroke-width="7.7146" stroke-miterlimit="10" stroke-linecap="round" stroke-linejoin="round"/>
<path d="M535.602 717.6L546.202 729L564.202 725.8" stroke="#2E2B27" stroke-width="7.7146" stroke-miterlimit="10" stroke-linecap="round" stroke-linejoin="round"/>
<path d="M565.801 713.8L577.201 723.2L592.401 721.4" stroke="#2E2B27" stroke-width="7.7146" stroke-miterlimit="10" stroke-linecap="round" stroke-linejoin="round"/>
<path d="M594.398 707.6L605.398 718.6L622.798 715.4" stroke="#2E2B27" stroke-width="7.7146" stroke-miterlimit="10" stroke-linecap="round" stroke-linejoin="round"/>
<path d="M623.602 702.4L633.602 712.6L651.402 709.4" stroke="#2E2B27" stroke-width="7.7146" stroke-miterlimit="10" stroke-linecap="round" stroke-linejoin="round"/>
<path d="M652.801 697.2L662.201 707.6L679.401 705.6" stroke="#2E2B27" stroke-width="7.7146" stroke-miterlimit="10" stroke-linecap="round" stroke-linejoin="round"/>
<path d="M680.199 692L690.799 702.4L706.399 700" stroke="#2E2B27" stroke-width="7.7146" stroke-miterlimit="10" stroke-linecap="round" stroke-linejoin="round"/>
<path d="M707.602 688.4L718.202 698.2L738.202 693.8" stroke="#2E2B27" stroke-width="7.7146" stroke-miterlimit="10" stroke-linecap="round" stroke-linejoin="round"/>
<path d="M317.801 778.4L326.401 787.6L370.001 780.4" stroke="#2E2B27" stroke-width="7.7146" stroke-miterlimit="10" stroke-linecap="round" stroke-linejoin="round"/>
<path d="M375.199 767.4L383.799 776.8L402.599 773" stroke="#2E2B27" stroke-width="7.7146" stroke-miterlimit="10" stroke-linecap="round" stroke-linejoin="round"/>
<path d="M407.398 763L416.598 771L434.398 767.4" stroke="#2E2B27" stroke-width="7.7146" stroke-miterlimit="10" stroke-linecap="round" stroke-linejoin="round"/>
<path d="M438.801 757C439.201 757.8 447.601 764.6 447.601 764.6L465.401 761.2" stroke="#2E2B27" stroke-width="7.7146" stroke-miterlimit="10" stroke-linecap="round" stroke-linejoin="round"/>
<path d="M470.801 752.6L479.801 760.8L497.801 757" stroke="#2E2B27" stroke-width="7.7146" stroke-miterlimit="10" stroke-linecap="round" stroke-linejoin="round"/>
<path d="M500.602 746L508.402 753.8L527.402 751.6" stroke="#2E2B27" stroke-width="7.7146" stroke-miterlimit="10" stroke-linecap="round" stroke-linejoin="round"/>
<path d="M529.199 739.8L539.799 748.6L557.599 744.6" stroke="#2E2B27" stroke-width="7.7146" stroke-miterlimit="10" stroke-linecap="round" stroke-linejoin="round"/>
<path d="M561.801 736.4L571.001 744.2L587.201 741.4" stroke="#2E2B27" stroke-width="7.7146" stroke-miterlimit="10" stroke-linecap="round" stroke-linejoin="round"/>
<path d="M589 730.2L599.6 738L616.8 734.8" stroke="#2E2B27" stroke-width="7.7146" stroke-miterlimit="10" stroke-linecap="round" stroke-linejoin="round"/>
<path d="M620.801 724.8L628.601 732.6L645.001 730.2" stroke="#2E2B27" stroke-width="7.7146" stroke-miterlimit="10" stroke-linecap="round" stroke-linejoin="round"/>
<path d="M647.398 719.6L656.198 726.8L673.798 724.8" stroke="#2E2B27" stroke-width="7.7146" stroke-miterlimit="10" stroke-linecap="round" stroke-linejoin="round"/>
<path d="M675.801 713.8L684.801 721.4L702.201 718.6" stroke="#2E2B27" stroke-width="7.7146" stroke-miterlimit="10" stroke-linecap="round" stroke-linejoin="round"/>
<path d="M707 710.6L714.6 717.6L744 712.6" stroke="#2E2B27" stroke-width="7.7146" stroke-miterlimit="10" stroke-linecap="round" stroke-linejoin="round"/>
<path d="M335.602 795.8L344.002 803.4L402.602 792.8" stroke="#2E2B27" stroke-width="7.7146" stroke-miterlimit="10" stroke-linecap="round" stroke-linejoin="round"/>
<path d="M407.398 783L416.598 789.2L434.398 786.2" stroke="#2E2B27" stroke-width="7.7146" stroke-miterlimit="10" stroke-linecap="round" stroke-linejoin="round"/>
<path d="M438.801 778.4L448.601 783L465.401 780.8" stroke="#2E2B27" stroke-width="7.7146" stroke-miterlimit="10" stroke-linecap="round" stroke-linejoin="round"/>
<path d="M472.398 771L480.598 776.8L496.398 773.8" stroke="#2E2B27" stroke-width="7.7146" stroke-miterlimit="10" stroke-linecap="round" stroke-linejoin="round"/>
<path d="M502 767L510.8 772L527.4 769.6" stroke="#2E2B27" stroke-width="7.7146" stroke-miterlimit="10" stroke-linecap="round" stroke-linejoin="round"/>
<path d="M533 760.8L541.2 764.8L559.6 761.2" stroke="#2E2B27" stroke-width="7.7146" stroke-miterlimit="10" stroke-linecap="round" stroke-linejoin="round"/>
<path d="M564.199 753.8L574.599 761.2L588.999 757" stroke="#2E2B27" stroke-width="7.7146" stroke-miterlimit="10" stroke-linecap="round" stroke-linejoin="round"/>
<path d="M595.602 748.6L603.002 754.8L618.402 751.8" stroke="#2E2B27" stroke-width="7.7146" stroke-miterlimit="10" stroke-linecap="round" stroke-linejoin="round"/>
<path d="M623.602 742.6L632.002 747.4L649.202 745.4" stroke="#2E2B27" stroke-width="7.7146" stroke-miterlimit="10" stroke-linecap="round" stroke-linejoin="round"/>
<path d="M652.801 736.4L662.201 742.6L677.801 739.8" stroke="#2E2B27" stroke-width="7.7146" stroke-miterlimit="10" stroke-linecap="round" stroke-linejoin="round"/>
<path d="M681.801 730.8L691.401 736.4L706.401 734" stroke="#2E2B27" stroke-width="7.7146" stroke-miterlimit="10" stroke-linecap="round" stroke-linejoin="round"/>
<path d="M711 725.8C712 726.6 720.6 732.2 720.6 732.2L773 724.8" stroke="#2E2B27" stroke-width="7.7146" stroke-miterlimit="10" stroke-linecap="round" stroke-linejoin="round"/>
<path d="M381 808.8L390.6 820.6L412.4 817.4" stroke="#2E2B27" stroke-width="7.7146" stroke-miterlimit="10" stroke-linecap="round" stroke-linejoin="round"/>
<path d="M414 803.4L424.8 812.6L460.2 805.8" stroke="#2E2B27" stroke-width="7.7146" stroke-miterlimit="10" stroke-linecap="round" stroke-linejoin="round"/>
<path d="M463.199 792.8L473.999 803.4L690.799 763" stroke="white" stroke-width="7.7146" stroke-miterlimit="10" stroke-linecap="round" stroke-linejoin="round"/>
<path d="M690.801 749.8L700.801 759.2L734.801 754.6" stroke="#2E2B27" stroke-width="7.7146" stroke-miterlimit="10" stroke-linecap="round" stroke-linejoin="round"/>
<path d="M734.801 741.4L746.001 752.6L765.601 748.6" stroke="#2E2B27" stroke-width="7.7146" stroke-miterlimit="10" stroke-linecap="round" stroke-linejoin="round"/>
</svg>
